<?xml version="1.0" encoding="utf-8"?>
<!-- Generator: Adobe Illustrator 27.4.0, SVG Export Plug-In . SVG Version: 6.00 Build 0)  -->
<svg version="1.1" id="Layer_1" xmlns="http://www.w3.org/2000/svg" xmlns:xlink="http://www.w3.org/1999/xlink" x="0px" y="0px"
	 viewBox="0 0 36 36" style="enable-background:new 0 0 36 36;" xml:space="preserve">
<style type="text/css">
	.st0{fill-rule:evenodd;clip-rule:evenodd;fill:#595959;}
</style>
<g>
	<path class="st0" d="M32.3,17.4L31.2,6.7l-2.8,2c-0.8-1-1.8-1.8-2.9-2.5c-1.5-0.8-3-1.5-4.7-1.8c-1.6-0.3-3.4-0.3-5-0.1
		C14,4.6,12.4,5.1,11,5.9C9.5,6.8,8.2,7.8,7.1,9.1c-1.1,1.2-2,2.7-2.6,4.3c-1.1,3-1.1,6.5,0,9.5c1,3.2,3.3,5.6,6,7.2
		c1.4,0.8,2.9,1.3,4.5,1.6c1.5,0.3,3,0.2,4.6,0c3-0.6,5.9-2.2,7.8-4.6c0.9-1.2,1.7-2.6,2.1-4c0.6-1.4,0.7-2.9,0.7-4.4
		c0,1.5-0.3,2.9-0.9,4.4c-0.6,1.3-1.4,2.6-2.3,3.7c-2,2.2-4.7,3.6-7.7,4c-1.4,0.2-2.8,0.1-4.2-0.1c-1.5-0.3-2.8-0.9-3.9-1.7
		c-2.4-1.6-4.2-4-5-6.5c-0.8-2.6-0.6-5.5,0.6-8c1-2.5,3-4.5,5.4-5.6c1.2-0.6,2.5-0.9,3.7-1.1c1.3,0,2.7,0,3.9,0.3
		c1.9,0.6,3.8,1.7,5.2,3.1l-2.8,2.1L32.3,17.4z"/>
</g>
</svg>
