<?xml version="1.0" encoding="utf-8"?>
<!-- Generator: Adobe Illustrator 27.4.0, SVG Export Plug-In . SVG Version: 6.00 Build 0)  -->
<svg version="1.1" id="layer_1" xmlns="http://www.w3.org/2000/svg" xmlns:xlink="http://www.w3.org/1999/xlink" x="0px" y="0px"
	 viewBox="0 0 36 36" style="enable-background:new 0 0 36 36;" xml:space="preserve">
<style type="text/css">
	.st0{fill:#FFFFFF;}
</style>
<path class="st0" d="M25,30.1h-7c-0.6,0-1.1-0.6-1.1-1.3c0-0.6,0.5-1.1,1.1-1.1h7c0.8,0,1.3,0.5,1.3,1.1
	C26.3,29.6,25.7,30.1,25,30.1z"/>
<path class="st0" d="M25.1,24.3H11c-0.6,0-1.1-0.7-1.1-1.3s0.5-1.1,1.1-1.1h14.1c0.7,0,1.2,0.6,1.3,1.1
	C26.4,23.6,25.8,24.3,25.1,24.3z"/>
<path class="st0" d="M25.1,18H11c-0.6,0-1.1-0.4-1.1-1.1c0-0.6,0.5-1.1,1.1-1.1h14.1c0.7,0,1.2,0.5,1.3,1.1
	C26.4,17.1,26.3,18,25.1,18z"/>
<path class="st0" d="M25.1,11.8H11c-0.6,0-1.1-0.6-1.1-1.3c0-0.6,0.5-1.1,1.1-1.1h14.1c0.7,0,1.2,0.6,1.3,1.1
	C26.4,11.3,25.8,11.8,25.1,11.8z"/>
<path class="st0" d="M25.1,21.9H11c-0.6,0-1.1,0.5-1.1,1.1s0.5,1.3,1.1,1.3h14.1c0.7,0,1.3-0.7,1.3-1.3
	C26.3,22.5,25.8,21.9,25.1,21.9z"/>
<g>
	<path class="st0" d="M25.1,9.4H11c-0.6,0-1.1,0.5-1.1,1.1c0,0.7,0.5,1.3,1.1,1.3h14.1c0.7,0,1.3-0.5,1.3-1.3
		C26.3,10,25.8,9.4,25.1,9.4z"/>
</g>
<path class="st0" d="M25.1,15.8H11c-0.6,0-1.1,0.5-1.1,1.1c0,0.7,0.5,1.1,1.1,1.1h14.1c1.2,0,1.3-0.9,1.3-1.1
	C26.3,16.3,25.8,15.8,25.1,15.8z"/>
<path class="st0" d="M25,27.7h-7c-0.6,0-1.1,0.5-1.1,1.1c0,0.7,0.5,1.3,1.1,1.3h7c0.7,0,1.3-0.5,1.3-1.3
	C26.3,28.2,25.8,27.7,25,27.7z"/>
<path class="st0" d="M29.8,4.3C29,3.5,28,3.1,26.9,3.1h-2.7V2.7c0-0.7-0.2-1.3-0.7-1.8c-0.4-0.4-0.9-0.6-1.6-0.6h-7.7
	c-0.5,0-1.2,0.2-1.6,0.6c-0.5,0.5-0.7,1-0.7,1.8V3H9C7.9,3.1,6.9,3.5,6.1,4.3c-0.9,0.9-1.3,1.8-1.3,3v27.1c0,0.7,0.5,1.3,1.1,1.3h24
	c0.6,0,1.1-0.6,1.1-1.3V7.3C31,6.2,30.6,5.2,29.8,4.3z M14.2,2.5h7.5v0.3h-7.6L14.2,2.5z M28.6,33.3H7.2v-26c0-0.5,0.2-1,0.5-1.4
	C7.9,5.6,8.3,5.5,9,5.5h17.8c0.6,0,0.9,0.1,1.3,0.5c0.3,0.3,0.5,0.8,0.5,1.3C28.6,7.3,28.6,33.3,28.6,33.3z"/>
</svg>
