<?xml version="1.0" encoding="utf-8"?>
<!-- Generator: Adobe Illustrator 27.4.0, SVG Export Plug-In . SVG Version: 6.00 Build 0)  -->
<svg version="1.1" id="layer_1" xmlns="http://www.w3.org/2000/svg" xmlns:xlink="http://www.w3.org/1999/xlink" x="0px" y="0px"
	 viewBox="0 0 36 36" style="enable-background:new 0 0 36 36;" xml:space="preserve">
<style type="text/css">
	.st0{fill:#FFFFFF;}
</style>
<g>
	<path class="st0" d="M34.5,1.6h-33c-0.7,0-1.2,0.5-1.2,1.2v24.5c0,0.7,0.5,1.2,1.2,1.2h11v3.3H9.6c-0.7,0-1.2,0.5-1.2,1.2
		s0.5,1.2,1.2,1.2h16.7c0.7,0,1.2-0.5,1.2-1.2s-0.5-1.2-1.2-1.2h-2.8v-3.3h11c0.7,0,1.2-0.5,1.2-1.2V2.8C35.8,2.1,35.2,1.6,34.5,1.6
		z M2.7,26.1v-1.8h30.6v1.8H2.7z M15,31.8v-3.3h6.1v3.3H15z M33.3,4v17.8H2.7V4H33.3z"/>
</g>
</svg>
