<?xml version="1.0" encoding="utf-8"?>
<!-- Generator: Adobe Illustrator 27.4.0, SVG Export Plug-In . SVG Version: 6.00 Build 0)  -->
<svg version="1.1" id="layer_1" xmlns="http://www.w3.org/2000/svg" xmlns:xlink="http://www.w3.org/1999/xlink" x="0px" y="0px"
	 viewBox="0 0 36 36" style="enable-background:new 0 0 36 36;" xml:space="preserve">
<style type="text/css">
	.st0{fill:#FFFFFF;}
</style>
<path class="st0" d="M34,8.9c-1.4-1.4-3.6-1.4-5,0l-2.5,2.4V1.7c0-0.8-0.6-1.4-1.4-1.4H8.9c-0.4,0-0.7,0.1-1,0.4l-6.2,6
	C1.5,7,1.3,7.4,1.3,7.8v26.7c0,0.8,0.6,1.4,1.4,1.4h22.4c0.8,0,1.4-0.6,1.4-1.4V21.4l7.4-7.4c0.7-0.7,1-1.5,1-2.5
	C35.1,10.5,34.7,9.6,34,8.9z M7.4,5.1v1.2H6.2L7.4,5.1z M23.8,33H4.2V9.2h4.7c0.7,0,1.4-0.7,1.4-1.4V3.1h13.4v11.2l-7.1,7.1
	c-0.1,0.1-0.3,0.3-0.4,0.6l-1.4,4.4c-0.2,0.5,0,1.1,0.4,1.5s0.9,0.5,1.5,0.4l4.4-1.4c0.2-0.1,0.5-0.2,0.6-0.4l2.1-2.1V33z M32,12
	L19.8,24.1l-1.4,0.4l0.4-1.4L31.1,11c0.2-0.2,0.7-0.2,0.9,0c0.1,0.1,0.2,0.3,0.2,0.5S32.1,11.8,32,12z"/>
</svg>
