<?xml version="1.0" encoding="UTF-8"?>
<svg id="_레이어_1" data-name="레이어 1" xmlns="http://www.w3.org/2000/svg" version="1.1" viewBox="0 0 24 24">
  <defs>
    <style>
      .cls-1 {
        fill: #555;
        stroke-width: 0px;
      }
    </style>
  </defs>
  <path class="cls-1" d="M12,0C5.37,0,0,5.37,0,12s5.37,12,12,12,12-5.37,12-12S18.63,0,12,0ZM12,22c-5.51,0-10-4.49-10-10S6.49,2,12,2s10,4.49,10,10-4.49,10-10,10Z"/>
  <g>
    <path class="cls-1" d="M9.73,9.26c.31-.24.66-.43,1.04-.56,1.02-.35,2.18-.23,3.11.33.38.23.74.55,1.01.91l.09.12-.88.43,2.61,1.45.44-2.96-.82.41-.06-.09c-.45-.66-1.05-1.22-1.74-1.62-1.28-.73-2.87-.87-4.26-.39-.53.18-1.02.45-1.46.79-.44.34-.82.74-1.13,1.2-.32.47-.55.99-.71,1.57l-.03.12,1.44.4.05-.18c.11-.38.27-.75.5-1.08.22-.33.49-.61.8-.86Z"/>
    <path class="cls-1" d="M14.27,15.22c-.32.25-.67.43-1.04.56-1.02.35-2.18.23-3.11-.33-.39-.24-.74-.55-1.01-.91l-.09-.12.88-.43-2.61-1.45-.44,2.96.82-.41.06.09c.45.66,1.05,1.22,1.74,1.62,1.28.73,2.87.87,4.26.39.53-.18,1.02-.45,1.46-.79.44-.34.82-.74,1.13-1.2.32-.47.55-.99.71-1.57l.03-.12-1.44-.4-.05.18c-.11.38-.27.75-.5,1.08-.22.33-.49.61-.8.85Z"/>
  </g>
</svg>