<?xml version="1.0" encoding="UTF-8"?>
<svg id="_레이어_1" data-name=" 레이어 1" xmlns="http://www.w3.org/2000/svg" version="1.1" viewBox="0 0 24 24">
  <defs>
    <style>
      .cls-1 {
        fill: #1f8c54;
        stroke-width: 0px;
      }
    </style>
  </defs>
  <path class="cls-1" d="M12,0C5.37,0,0,5.37,0,12s5.37,12,12,12,12-5.37,12-12S18.63,0,12,0ZM12,22c-5.51,0-10-4.49-10-10S6.49,2,12,2s10,4.49,10,10-4.49,10-10,10Z"/>
  <path class="cls-1" d="M17.23,8.51l-.03-.03c-.39-.28-.98-.24-1.29.09l-4.74,4.74-2.14-2.14c-.19-.19-.43-.29-.7-.29s-.52.1-.7.29c-.19.19-.29.43-.29.7s.1.52.29.7l2.83,2.83c.19.19.43.29.7.29s.52-.1.7-.29l5.44-5.44c.19-.19.29-.43.29-.7s-.1-.52-.29-.7c0,0-.08-.07-.08-.07Z"/>
</svg>