<svg width="24" height="24" viewBox="0 0 24 24" fill="none" xmlns="http://www.w3.org/2000/svg">
<g clip-path="url(#clip0_115_181)">
<path d="M12 0C5.37 0 0 5.37 0 12C0 18.63 5.37 24 12 24C18.63 24 24 18.63 24 12C24 5.37 18.63 0 12 0ZM12 22C6.49 22 2 17.51 2 12C2 6.49 6.49 2 12 2C17.51 2 22 6.49 22 12C22 17.51 17.51 22 12 22Z" fill="white"/>
<path d="M16.08 12.9099L10.02 16.4099C9.57 16.6699 9.01 16.3399 9.01 15.8199V8.81994C9.01 8.29994 9.57 7.96994 10.02 8.22994L16.08 11.7299C16.53 11.9899 16.53 12.6399 16.08 12.8999V12.9099Z" fill="white"/>
</g>
<defs>
<clipPath id="clip0_115_181">
<rect width="24" height="24" fill="white"/>
</clipPath>
</defs>
</svg>
