<svg width="24" height="24" viewBox="0 0 24 24" fill="none" xmlns="http://www.w3.org/2000/svg">
<g clip-path="url(#clip0_115_191)">
<path d="M12 0C5.37 0 0 5.37 0 12C0 18.63 5.37 24 12 24C18.63 24 24 18.63 24 12C24 5.37 18.63 0 12 0ZM12 22C6.49 22 2 17.51 2 12C2 6.49 6.49 2 12 2C17.51 2 22 6.49 22 12C22 17.51 17.51 22 12 22Z" fill="white"/>
<path d="M16.07 8.74993C16.07 8.52993 15.99 8.32993 15.83 8.16993C15.51 7.84993 15 7.84993 14.68 8.16993L12.01 10.8399L9.33 8.16993C9.02 7.85993 8.48 7.85993 8.18 8.16993C8.03 8.31993 7.94 8.52993 7.94 8.74993C7.94 8.96993 8.02 9.16993 8.18 9.32993L10.85 12.0099L8.18 14.6799C7.86 14.9999 7.86 15.5099 8.18 15.8299C8.49 16.1399 9.02 16.1399 9.33 15.8299L12.01 13.1499L14.68 15.8299C14.83 15.9799 15.04 16.0699 15.26 16.0699C15.48 16.0699 15.68 15.9899 15.84 15.8299C16.16 15.5099 16.16 14.9999 15.84 14.6799L13.16 12.0099L15.84 9.32993C15.99 9.17993 16.08 8.96993 16.08 8.74993H16.07Z" fill="white"/>
</g>
<defs>
<clipPath id="clip0_115_191">
<rect width="24" height="24" fill="white"/>
</clipPath>
</defs>
</svg>
