<?xml version="1.0" encoding="utf-8"?>
<!-- Generator: Adobe Illustrator 27.4.0, SVG Export Plug-In . SVG Version: 6.00 Build 0)  -->
<svg version="1.1" id="Layer_1" xmlns="http://www.w3.org/2000/svg" xmlns:xlink="http://www.w3.org/1999/xlink" x="0px" y="0px"
	 viewBox="0 0 36 36" style="enable-background:new 0 0 36 36;" xml:space="preserve">
<style type="text/css">
	.st0{fill:#FFFFFF;}
</style>
<path class="st0" d="M31.3,15.2c-0.5,0-0.9,0.4-0.9,0.9v12.4H5.7V16.2c0-0.5-0.4-0.9-0.9-0.9s-0.9,0.4-0.9,0.9v13.3
	c0,0.5,0.4,0.9,0.9,0.9h26.5c0.5,0,0.9-0.4,0.9-0.9V16.2C32.2,15.7,31.8,15.2,31.3,15.2z"/>
<path class="st0" d="M21.7,20.3c0-0.3-0.2-0.5-0.4-0.6c-0.4-0.2-0.9-0.2-1.2,0.2l-1.1,1.3V6.4c0-0.5-0.4-0.9-0.9-0.9
	S17.1,6,17.1,6.4v14.8l-1.1-1.3c-0.3-0.3-0.8-0.4-1.2-0.2c-0.2,0.1-0.4,0.4-0.4,0.6c0,0.2,0,0.5,0.2,0.7l2.8,3.2
	c0.2,0.2,0.4,0.3,0.7,0.3c0.3,0,0.6-0.1,0.7-0.3l2.8-3.2C21.7,20.8,21.8,20.6,21.7,20.3z"/>
</svg>
