<?xml version="1.0" encoding="utf-8"?>
<!-- Generator: Adobe Illustrator 27.4.0, SVG Export Plug-In . SVG Version: 6.00 Build 0)  -->
<svg version="1.1" id="layer_1" xmlns="http://www.w3.org/2000/svg" xmlns:xlink="http://www.w3.org/1999/xlink" x="0px" y="0px"
	 viewBox="0 0 36 36" style="enable-background:new 0 0 36 36;" xml:space="preserve">
<style type="text/css">
	.st0{fill:#FFFFFF;}
</style>
<path class="st0" d="M31.3,5.6H4.7c-2.5,0-4.5,2-4.5,4.5v16.6c0,2.5,2,4.5,4.5,4.5h26.6c2.5,0,4.5-2,4.5-4.5V10.1
	C35.8,7.6,33.8,5.6,31.3,5.6z M33.4,26.7c0,1.2-0.9,2.1-2.1,2.1H4.7c-1.2,0-2.1-0.9-2.1-2.1V10.1C2.6,9,3.5,8,4.7,8h26.6
	c1.2,0,2.1,0.9,2.1,2.1C33.4,10.1,33.4,26.7,33.4,26.7z"/>
<path class="st0" d="M17.2,23.2c0.2,0.2,0.5,0.3,0.8,0.3s0.6-0.1,0.8-0.3l12.2-10c0.5-0.4,0.6-1.2,0.2-1.7s-1.2-0.6-1.7-0.2L18,20.8
	L6.6,11.4c-0.5-0.4-1.3-0.3-1.7,0.2c-0.4,0.5-0.3,1.3,0.2,1.7L17.2,23.2z"/>
</svg>
