<?xml version="1.0" encoding="utf-8"?>
<!-- Generator: Adobe Illustrator 27.4.0, SVG Export Plug-In . SVG Version: 6.00 Build 0)  -->
<svg version="1.1" id="격리_모드" xmlns="http://www.w3.org/2000/svg" xmlns:xlink="http://www.w3.org/1999/xlink" x="0px"
	 y="0px" viewBox="0 0 64.6 41.1" style="enable-background:new 0 0 64.6 41.1;" xml:space="preserve">
<g>
	<path d="M64.6,1.6c0-0.6-0.3-1.1-0.6-1.4L63.6,0C63.6,0,1.1,0,1,0C0.7,0,0.4,0.3,0.4,0.3C0.1,0.6,0,1.1,0,1.6v37.8
		c0,0.9,0.6,1.7,1.4,1.7h61.8c0.8,0,1.4-0.7,1.4-1.7V1.6z M3.3,3.3h58v34.5h-58V3.3z"/>
	<path d="M36.4,23c-0.4-0.5-1-0.9-1.7-1.3c1.4-0.2,2.4-0.7,3.1-1.4c0.7-0.8,1-1.7,1-2.9c0-0.9-0.2-1.7-0.7-2.4
		c-0.4-0.7-1-1.2-1.8-1.5c-0.7-0.3-1.9-0.4-3.6-0.4h-6.6v15.5h3.1V22h0.6c0.7,0,1.2,0.1,1.6,0.2c0.3,0.1,0.6,0.3,0.9,0.6
		c0.3,0.3,0.8,1.1,1.6,2.3l2.3,3.4h3.7l-1.9-3C37.5,24.3,36.9,23.4,36.4,23z M31.6,19.6h-2.3v-3.9h2.4c1.3,0,2,0,2.3,0.1
		c0.5,0.1,0.9,0.3,1.2,0.6c0.3,0.3,0.4,0.7,0.4,1.3c0,0.5-0.1,0.9-0.3,1.2c-0.2,0.3-0.5,0.5-0.9,0.7C34.1,19.5,33.1,19.6,31.6,19.6z
		"/>
</g>
</svg>
