<?xml version="1.0" encoding="utf-8"?>
<!-- Generator: Adobe Illustrator 27.4.0, SVG Export Plug-In . SVG Version: 6.00 Build 0)  -->
<svg version="1.1" id="격리_모드" xmlns="http://www.w3.org/2000/svg" xmlns:xlink="http://www.w3.org/1999/xlink" x="0px"
	 y="0px" viewBox="0 0 48.8 41.1" style="enable-background:new 0 0 48.8 41.1;" xml:space="preserve">
<g>
	<path d="M46.8,18.6H2.1c-1.1,0-2.1-0.9-2.1-1.9V1.9C0,0.9,0.9,0,2.1,0h44.7c1.1,0,2.1,0.9,2.1,1.9v14.8
		C48.8,17.7,47.9,18.6,46.8,18.6z M2.1,1.8c-0.2,0-0.3,0.1-0.3,0.1v14.8c0,0,0.1,0.1,0.3,0.1h44.7c0.2,0,0.3-0.1,0.3-0.1V1.9
		c0,0-0.1-0.1-0.3-0.1H2.1z"/>
	<path d="M47.9,9.4H26.7c-0.5,0-0.9-0.4-0.9-0.9V4.4c0-0.5,0.4-0.9,0.9-0.9h21.2c0.5,0,0.9,0.4,0.9,0.9v4.1
		C48.8,9,48.4,9.4,47.9,9.4z M27.6,7.6H47V5.3H27.6V7.6z"/>
	<path d="M47.9,13.7H26.7c-0.5,0-0.9-0.4-0.9-0.9c0-0.5,0.4-0.9,0.9-0.9h21.2c0.5,0,0.9,0.4,0.9,0.9C48.8,13.3,48.4,13.7,47.9,13.7z
		"/>
	<path d="M10.5,6.9H4.9C4.5,6.9,4.1,6.5,4.1,6s0.4-0.9,0.9-0.9h5.5c0.5,0,0.9,0.4,0.9,0.9S11,6.9,10.5,6.9z"/>
	<path d="M10.5,12.6H4.9c-0.5,0-0.9-0.4-0.9-0.9s0.4-0.9,0.9-0.9h5.5c0.5,0,0.9,0.4,0.9,0.9S11,12.6,10.5,12.6z"/>
	<path d="M46.8,41.1H2.1c-1.1,0-2.1-0.9-2.1-1.9V24.4c0-1.1,0.9-1.9,2.1-1.9h44.7c1.1,0,2.1,0.9,2.1,1.9v14.8
		C48.8,40.3,47.9,41.1,46.8,41.1z M2.1,24.3c-0.2,0-0.3,0.1-0.3,0.1v14.8c0,0,0.1,0.1,0.3,0.1h44.7c0.2,0,0.3-0.1,0.3-0.1V24.4
		c0,0-0.1-0.1-0.3-0.1H2.1z"/>
	<path d="M47.9,31.9H26.7c-0.5,0-0.9-0.4-0.9-0.9v-4.1c0-0.5,0.4-0.9,0.9-0.9h21.2c0.5,0,0.9,0.4,0.9,0.9V31
		C48.8,31.5,48.4,31.9,47.9,31.9z M27.6,30.2H47v-2.4H27.6V30.2z"/>
	<path d="M47.9,36.2H26.7c-0.5,0-0.9-0.4-0.9-0.9c0-0.5,0.4-0.9,0.9-0.9h21.2c0.5,0,0.9,0.4,0.9,0.9C48.8,35.8,48.4,36.2,47.9,36.2z
		"/>
	<path d="M10.5,29.4H4.9c-0.5,0-0.9-0.4-0.9-0.9c0-0.5,0.4-0.9,0.9-0.9h5.5c0.5,0,0.9,0.4,0.9,0.9C11.4,29,11,29.4,10.5,29.4z"/>
	<path d="M10.5,35.1H4.9c-0.5,0-0.9-0.4-0.9-0.9c0-0.5,0.4-0.9,0.9-0.9h5.5c0.5,0,0.9,0.4,0.9,0.9C11.4,34.7,11,35.1,10.5,35.1z"/>
	<path d="M43.5,24.3H5.3c-0.5,0-0.9-0.4-0.9-0.9v-5.7c0-0.5,0.4-0.9,0.9-0.9h38.2c0.5,0,0.9,0.4,0.9,0.9v5.7
		C44.4,23.9,44,24.3,43.5,24.3z M6.2,22.5h36.4v-3.9H6.2V22.5z"/>
	<path d="M27.9,24.3h-6.9c-0.5,0-0.9-0.4-0.9-0.9v-5.7c0-0.5,0.4-0.9,0.9-0.9h6.9c0.5,0,0.9,0.4,0.9,0.9v5.7
		C28.8,23.9,28.4,24.3,27.9,24.3z M21.8,22.5H27v-3.9h-5.2V22.5z"/>
</g>
</svg>
