<?xml version="1.0" encoding="UTF-8"?>
<svg id="_레이어_1" data-name="레이어 1" xmlns="http://www.w3.org/2000/svg" version="1.1" viewBox="0 0 24 24">
  <defs>
    <style>
      .cls-1 {
        fill: #dd2b0e;
        stroke-width: 0px;
      }
    </style>
  </defs>
  <path class="cls-1" d="M12,0C5.37,0,0,5.37,0,12s5.37,12,12,12,12-5.37,12-12S18.63,0,12,0ZM12,22c-5.51,0-10-4.49-10-10S6.49,2,12,2s10,4.49,10,10-4.49,10-10,10Z"/>
  <path class="cls-1" d="M16.07,8.75c0-.22-.08-.42-.24-.58-.32-.32-.83-.32-1.15,0l-2.67,2.67-2.68-2.67c-.31-.31-.85-.31-1.15,0-.15.15-.24.36-.24.58s.08.42.24.58l2.67,2.68-2.67,2.67c-.32.32-.32.83,0,1.15.31.31.84.31,1.15,0l2.68-2.68,2.67,2.68c.15.15.36.24.58.24s.42-.08.58-.24c.32-.32.32-.83,0-1.15l-2.68-2.67,2.68-2.68c.15-.15.24-.36.24-.58Z"/>
</svg>