<svg width="24" height="24" viewBox="0 0 24 24" fill="none" xmlns="http://www.w3.org/2000/svg">
<g clip-path="url(#clip0_115_194)">
<path d="M12 0C5.37 0 0 5.37 0 12C0 18.63 5.37 24 12 24C18.63 24 24 18.63 24 12C24 5.37 18.63 0 12 0ZM12 22C6.49 22 2 17.51 2 12C2 6.49 6.49 2 12 2C17.51 2 22 6.49 22 12C22 17.51 17.51 22 12 22Z" fill="white"/>
<path d="M17.23 8.51004L17.2 8.48004C16.81 8.20004 16.22 8.24004 15.91 8.57004L11.17 13.31L9.03 11.17C8.84 10.98 8.6 10.88 8.33 10.88C8.06 10.88 7.81 10.98 7.63 11.17C7.44 11.36 7.34 11.6 7.34 11.87C7.34 12.14 7.44 12.39 7.63 12.57L10.46 15.4C10.65 15.59 10.89 15.69 11.16 15.69C11.43 15.69 11.68 15.59 11.86 15.4L17.3 9.96004C17.49 9.77004 17.59 9.53004 17.59 9.26004C17.59 8.99004 17.49 8.74004 17.3 8.56004L17.22 8.49004L17.23 8.51004Z" fill="white"/>
</g>
<defs>
<clipPath id="clip0_115_194">
<rect width="24" height="24" fill="white"/>
</clipPath>
</defs>
</svg>
